/* XPM */
static char *_a3d502bcfc04618a69fad12d8518b96VtsTuXlnBuCaHcnC[] = {
/* columns rows colors chars-per-pixel */
"30 30 195 2 ",
"   c #3F2773",
".  c #3F2677",
"X  c #3E2870",
"o  c #3F2870",
"O  c #412675",
"+  c #40237F",
"@  c #41257C",
"#  c #42247C",
"$  c #41247E",
"%  c #42247E",
"&  c #431E8F",
"*  c #431E90",
"=  c #431E92",
"-  c #441F90",
";  c #451F90",
":  c #451E91",
">  c #441F91",
",  c #461D93",
"<  c #451E93",
"1  c #451E95",
"2  c #441C96",
"3  c #451D97",
"4  c #451D98",
"5  c #461C98",
"6  c #461C9A",
"7  c #461B9E",
"8  c #461C9C",
"9  c #451C9E",
"0  c #422381",
"q  c #412182",
"w  c #402282",
"e  c #412383",
"r  c #422283",
"t  c #412184",
"y  c #412385",
"u  c #422285",
"i  c #412186",
"p  c #412387",
"a  c #422287",
"s  c #412088",
"d  c #442189",
"f  c #44208A",
"g  c #42218C",
"h  c #44208C",
"j  c #4717A7",
"k  c #461BA0",
"l  c #471CA1",
"z  c #4519A4",
"x  c #4718A6",
"c  c #481AA0",
"v  c #481AA1",
"b  c #4819A3",
"n  c #4819A5",
"m  c #4819A7",
"M  c #491AA6",
"N  c #4816A9",
"B  c #4917AA",
"V  c #4816AB",
"C  c #4917AC",
"Z  c #4816AD",
"A  c #4917AE",
"S  c #4916AF",
"D  c #4818A8",
"F  c #4A19A8",
"G  c #4818AC",
"H  c #4815B0",
"J  c #4B15B1",
"K  c #4916B1",
"L  c #4B15B3",
"P  c #4916B3",
"I  c #4A13B7",
"U  c #4915B5",
"Y  c #4B15B5",
"T  c #4B14B7",
"R  c #4C16B6",
"E  c #4A13B9",
"W  c #4C13B8",
"Q  c #4C13BA",
"!  c #4B14B8",
"~  c #4B14BA",
"^  c #4C15BB",
"/  c #4C12BC",
"(  c #4C12BE",
")  c #4C12BF",
"_  c #4D0FC8",
"`  c #4B10C2",
"'  c #4C11C1",
"]  c #4C11C3",
"[  c #4D10C5",
"{  c #4D10C7",
"}  c #B27FFF",
"|  c #9EA09F",
" . c #9E9FA1",
".. c #9E9FA3",
"X. c #9F9FA7",
"o. c #9E9EA8",
"O. c #9F9FA9",
"+. c #A09FA4",
"@. c #A09FA7",
"#. c #A09EA9",
"$. c #A19FAA",
"%. c #A09EAB",
"&. c #A09EAC",
"*. c #A09DAE",
"=. c #A09BB1",
"-. c #A39BB3",
";. c #A19CB0",
":. c #A09DB0",
">. c #A19EB1",
",. c #A19CB2",
"<. c #A19CB3",
"1. c #A29DB3",
"2. c #A299B4",
"3. c #A19BB5",
"4. c #A19BB7",
"5. c #A39AB7",
"6. c #A09CB5",
"7. c #A29CB6",
"8. c #A19AB9",
"9. c #A39AB9",
"0. c #A298BB",
"q. c #A399BB",
"w. c #A399BC",
"e. c #A399BE",
"r. c #A498BE",
"t. c #9DA1A0",
"y. c #9CA0A1",
"u. c #9FA1A0",
"i. c #9DA1A2",
"p. c #9FA0A2",
"a. c #9FA0A4",
"s. c #9FA0A5",
"d. c #A0A0A0",
"f. c #A0A0A2",
"g. c #A0A1A3",
"h. c #A497C2",
"j. c #A497C3",
"k. c #A696C3",
"l. c #A497C5",
"z. c #A398C2",
"x. c #A398C3",
"c. c #A598C3",
"v. c #A598C4",
"b. c #A598C6",
"n. c #A496C9",
"m. c #A794CB",
"M. c #A695CB",
"N. c #A496CB",
"B. c #A695CC",
"V. c #A796CD",
"C. c #A694CE",
"Z. c #A78FDD",
"A. c #A793D0",
"S. c #A793D2",
"D. c #A792D3",
"F. c #A693D3",
"G. c #A694D0",
"H. c #A795D1",
"J. c #A694D2",
"K. c #A693D5",
"L. c #A691D6",
"P. c #A792D7",
"I. c #A894D3",
"U. c #A893D4",
"Y. c #A791D9",
"T. c #A891D9",
"R. c #A890DA",
"E. c #A892DA",
"W. c #A890DE",
"Q. c #A88FE0",
"!. c #AA8FE0",
"~. c #AA8EE2",
"^. c #AA8EE5",
"/. c #AA8DE7",
"(. c #AB8FE6",
"). c #AA8AEB",
"_. c #AA8DE9",
"`. c #A98FE8",
"'. c #AB8EE8",
"]. c #AB8CEA",
"[. c #AB8BEC",
"{. c #AC88F2",
"}. c #AD89F3",
"|. c #AD8AF2",
" X c #AD89F5",
".X c #AD89F7",
"XX c #AE87FC",
"oX c #AF84FF",
"OX c #AD87FF",
"+X c #AE86FF",
"@X c #AD88F9",
"#X c #AE88F9",
"$X c #B181FF",
"%X c #B280FF",
"&X c #B182FF",
/* pixels */
"p.p.p.p.p. .p.f.f.f. .6.U._._.)./._._.R.,.p.p.p.p.p.p.p.p.p.",
"p.p.p.p.p...#.6.w.v.l.S.a : h f h f : q v.&.#.g.p.p.p.p.p.p.",
"p.p.p.| p.#.2.S.: n n j K C b 9 7 b K n + M.&...p.p.p.p.s.s.",
"p.f.u.u. .#.k.% K { ' T C 7 & |.|.3 K J 7 _.w.O.s.p.p.p.p.p.",
"f.p.s.s.p.,.S.h T ] T 6 R.v.r.w.w.S.3 K T 9 K.6.#.p.u.d.+.p.",
"p.f.s.&.#.w.~.3 K C 3 W.5.f.p.| p.9.|.N T G e M.,.p.f.f.p.p.",
"p.p.p.g.6.C.{.k G 3 S.5.#.p.p.p.f.r.|.n N n 6 /.9.p.p.p.p.p.",
"p.p.p.g.v.O 9 C &X& c.#.s.p.p.p.#.l.: G &X9 h O 6.p.p.s.p.p.",
"p.p.s.6.C.& C ! G & S.5.O.f.p.#.5.U.n W } : S.5.s.p.p.p.p.p.",
"p.p.p.O.l.a K / n }.X k.O...p.,.m.r J / n q w.p.s.p.p.p.p.p.",
"p.i.p.s.O.S.G T 6 ].@ A.,.p.p.9.(.7 W T 6 W.6.p.p.p.p.p.p.p.",
"i.i.| p.p.x.9 K 3 |.#Xa U.l.l.R.8 T / G e M.&.p.p.p.p.p.p.p.",
"p.p.p.p.p.w.: &Xl 7 K H G k x C ! / T 3 C.,.O.p.p.p.p.p.p.p.",
"p.p.p.p.p.w.h x &XT ] ] ! E ] _ ' ! G }.x...s.p.p.p.p.p.p.p.",
"s...p.p.p.w.|.C W ' { ^ 7 l E ' T N x #XG.6.O. .p.p.p.p.p.p.",
"p...:.9.c.R.: N C C G x oXoXT ! T &XG l p G.9.#.s.p.p.p.p.p.",
"p.:.G./.6 n n 6 q ~.Q.a x T C } / ' / ! K 6 G.6.O. . .p.p.p.",
"i.8.. l E ' &X- U.w.w.G.h 9 - - 9 n n N ! K f U.9.O.s. .p.p.",
"p.x.6 ! { / C h c.O.#.,.w.v.w.w.k.l.l.Z.8 G C 6 S.5.#.p.p.p.",
"p.w.- C T K G }.9.f.u.| s.p.p.p.p.p.p.9.[.G / C % c.&.p.p.p.",
"p.2.C./.h OX9 {.r.p.p.p.p.p.u.| p.p.p.5.R.6 T K h G.,.p.i.i.",
"p.O.x.X y oXx 6 A.9.,.#.p.f.u.p.p.s.O.w.].l ! T : K.6.f.p.p.",
"p.&.G.h m ! ^ H 3 ~.C.6.g.s.f.f.p.O.6.K.9 ! ] ! : Y.,.p.p.p.",
"p.6.X XX! { { ] T 9 a Y.v.w.5.6.5.w.K.g T { ] G q M.,.p.p.p.",
"p.6.R.: T _ _ _ ' ! K n - _.~.R.K._.9 T ] ] K 1 C.,.g.p.p.p.",
"p.&.m.# 3 x C C T ! { ' T G 6 : * 9 U ^ ! G 1 W.6.p.p.p.f. .",
"p.@.,.9.x.M.Y.% h l ! { ' / ! ! T T H x 4 y C.6.#.p.s.s.+.+.",
"f.f.f.f.p.O.5.c.C.(.3 x n n n x x 9 - [.W.N.:.s.p.p.p.s.@.g.",
"p.p.p.s.p.s.#.&.,.9.c.x.v.l.x.v.v.x.r.9.6.,.s.p.p.p.p.p.p.p.",
"p.p.s.s.p.p.f.p.p.p.p.p.p.p.p.p.p.p.| | f.f.i.p.p.p.p.p.p.p."
};
