/* XPM */
static char *_28967db899642b8f0e9eba437f125a6qxgVSjyeX4ekmDgp[] = {
/* columns rows colors chars-per-pixel */
"30 30 177 2 ",
"   c #7D3131",
".  c #A81E1B",
"X  c #A91E1B",
"o  c #AA1F1A",
"O  c #AE1D18",
"+  c #AE1D1A",
"@  c #AD1E1A",
"#  c #A91F1C",
"$  c #AA1F1C",
"%  c #BC1711",
"&  c #BF1611",
"*  c #BE1711",
"=  c #BD1512",
"-  c #BE1613",
";  c #B71812",
":  c #B71814",
">  c #B51A15",
",  c #B71A15",
"<  c #B71916",
"1  c #B51A16",
"2  c #B81913",
"3  c #B81915",
"4  c #B01C18",
"5  c #B11C18",
"6  c #A3221D",
"7  c #A2231D",
"8  c #A1211E",
"9  c #A3211F",
"0  c #A0231F",
"q  c #A2221F",
"w  c #A7201C",
"e  c #A7201D",
"r  c #AB201D",
"t  c #802F2C",
"y  c #9B2521",
"u  c #9B2523",
"i  c #992623",
"p  c #982723",
"a  c #9C2521",
"s  c #9E2421",
"d  c #982625",
"f  c #922925",
"g  c #912926",
"h  c #922926",
"j  c #902A26",
"k  c #942825",
"l  c #942826",
"z  c #81302D",
"x  c #80312D",
"c  c #CE0E09",
"v  c #CF0F0A",
"b  c #D40D06",
"n  c #D60D06",
"m  c #D70E07",
"M  c #DB0A03",
"N  c #DF0901",
"B  c #DE0903",
"V  c #DB0A05",
"C  c #D80C05",
"Z  c #D10E08",
"A  c #D30E08",
"S  c #D20F09",
"D  c #D40D08",
"F  c #C7110D",
"G  c #C3150E",
"H  c #C3140F",
"J  c #C2150F",
"K  c #C1160F",
"L  c #C5140E",
"P  c #CA120A",
"I  c #CF1008",
"U  c #CC110A",
"Y  c #CA110C",
"T  c #C9120C",
"R  c #C8130C",
"E  c #C8120E",
"W  c #C9130F",
"Q  c #CD100C",
"!  c #CC110C",
"~  c #C11511",
"^  c #C01712",
"/  c #E20701",
"(  c #E40500",
")  c #E50600",
"_  c #E40700",
"`  c #FF6B64",
"'  c #EF7F7D",
"]  c #FF7875",
"[  c #FF7976",
"{  c #F07F7B",
"}  c #F07E7D",
"|  c #EA817D",
" . c #E9827D",
".. c #E9817E",
"X. c #EA817E",
"o. c #E8827E",
"O. c #EA827F",
"+. c #EC807D",
"@. c #ED807D",
"#. c #A39F9E",
"$. c #A59C9D",
"%. c #A69D9E",
"&. c #A79E9F",
"*. c #AF9A99",
"=. c #AC9A9A",
"-. c #AD9B9B",
";. c #AE9A9B",
":. c #AB9B9C",
">. c #AE9A9C",
",. c #A89C9C",
"<. c #B69795",
"1. c #B59797",
"2. c #B69697",
"3. c #BF9392",
"4. c #BD9492",
"5. c #BF9394",
"6. c #B99595",
"7. c #BB9594",
"8. c #B99694",
"9. c #B89695",
"0. c #B99796",
"q. c #B89697",
"w. c #BA9696",
"e. c #BC9494",
"r. c #BC9495",
"t. c #B29897",
"y. c #B49897",
"u. c #B19798",
"i. c #B59799",
"p. c #B29899",
"a. c #B3999A",
"s. c #9E9FA1",
"d. c #9F9FA1",
"f. c #A19FA0",
"g. c #A39FA0",
"h. c #A19FA2",
"j. c #A69DA0",
"k. c #A49EA0",
"l. c #9DA1A0",
"z. c #9FA1A0",
"x. c #9DA1A2",
"c. c #9FA0A2",
"v. c #9EA2A3",
"b. c #9FA0A4",
"n. c #A0A2A1",
"m. c #A0A0A2",
"M. c #A0A1A3",
"N. c #C58F8D",
"B. c #CD8D8B",
"V. c #CE8D8B",
"C. c #CA8D8C",
"Z. c #CA8E8D",
"A. c #CB8E8D",
"S. c #CB8D8E",
"D. c #D88784",
"F. c #DB8785",
"G. c #DC8784",
"H. c #D78987",
"J. c #D98885",
"K. c #D98887",
"L. c #D18A88",
"P. c #D28B89",
"I. c #D28A8B",
"U. c #D58989",
"Y. c #D08C8B",
"T. c #C2908F",
"R. c #C6908E",
"E. c #C39190",
"W. c #C29292",
"Q. c #C49190",
"!. c #C69090",
"~. c #E58382",
"^. c #E38480",
"/. c #E08582",
"(. c #E28482",
"). c #E38482",
"_. c #E48583",
/* pixels */
"c.c.c.c.c.,.5.V._.@.} @.@.' ' ' X.^.A.5.%.c.c.c.c.c.c.M.c.c.",
"c.c.c.g.-.5.U.f 9 X r $ $ $ . $ r q f D.T.2.$.M.c.c.c.c.c.c.",
"c.c.c.-.Z.f 1 T I Z Z Z Z Z Z Z Z I R * r _.2.l.s.s.l.n.c.c.",
"c.c.c.2.X.1 n ) ) / B n Z Z T T n N / M T w J.4.-.%.#.n.c.c.",
"c.s.d.W.+ D N ) ) N v ~ 5 q ~.u ; v N N L * = w P.2.%.c.b.b.",
"c.g.j.Z.3 C D v T = r ' ).L.T.A.X.w 1 = * ` N T p V.>.c.b.b.",
"c.%.i.  + ~ 5 9 l K.T.5.2.-.-.-.8.3.T.J.w T M n ; X.2.b.c.c.",
"c.%.i.Z.X.p ).L.T.i.%.s.M.c.c.M.M.M.M.0.| 2 n M T 9 9.g.c.c.",
"d.g.%.-.9.8.y.-.:.%.g.c.c.c.c.c.c.c.M.-.Z.p T N L 9 5.c.c.c.",
"b.M.s.c.c.s.l.l.c.c.c.c.c.c.c.c.c.c.c.%.2.G.L M ~ ' 9.c.c.c.",
"b.b.c.c.c.c.c.c.c.c.c.c.b.c.c.c.b.c.h.g.,.V.G Z 5 ).2.c.c.c.",
"c.c.c.c.c.c.c.c.c.c.s.g.>.p.p.2.W.!.e.e.!.^.L I 7 P.-.c.c.c.",
"c.c.c.c.M.g.c.c.b.b.c.-.Z.D.G.X.+ 1 ] w < T M T X.T.,.c.c.c.",
"c.c.c.c.M.c.c.c.b.b.c.p.t p u 5 Z N v v B ) ) T f T.,.c.c.c.",
"c.c.c.c.c.c.c.c.c.c.g.p.t p + ~ C / B N / ) ) I 9 P.p.M.c.c.",
"c.c.c.c.c.c.c.c.c.c.M.-.A.).d ] 1 = - = - L V Z w J.p.c.c.c.",
"c.c.c.c.c.l.M.M.M.s.M.#.-.2.9.W.E.N.!.T.!._.T Z $ J.p.c.c.c.",
"c.c.c.c.c.l.c.c.s.M.s.M.M.s.M.s.c.s.c.g.-.U.G Z $ J.p.c.c.c.",
"c.c.c.c.c.c.c.c.M.s.c.c.s.M.s.M.c.c.c.-.Z.d v Z w J.y.l.c.s.",
"c.c.c.g.-.y.E.E.y.-.j.c.M.s.M.s.c.c.c.i.).5 Z Z w J.y.c.c.c.",
"c.c.c.-.Z.j O O f Z.>.c.c.c.s.g.M.M.M.9.' ~ n Z $ J.p.b.c.c.",
"c.c.v.p.P.7 I n 3 X.9.c.c.c.c.n.-.9.E.G.5 v B I q L.-.g.c.c.",
"v.c.c.,.E.f R N D + E.c.c.c.M.-.C.X.+ L D B / T k E.:.c.c.c.",
"M.c.b.,.y.G.G / ) T _.Z.!.T.!.U.p 2 D ) ) ) ) T ^.e.%.c.c.c.",
"c.c.c.n.%.V.= ) ) V T = = * = G I D / ) ) ) ) T o.8.,.c.c.c.",
"c.c.l.n.c.E.w T I Z Z Z Z Z S Z Z Z Z I T T Z 1   y.%.c.c.c.",
"c.c.M.M.c.-.I.l 9 $ r r r . r r $ $ r q X.l w k 3.%.#.c.c.c.",
"c.g.s.z.M.%.i.E.L.G.D.J.J.J.J.J.J.J.G.L.E.E.L.A.-.c.c.c.g.M.",
"c.c.c.c.c.g.%.,.p.p.p.p.p.p.p.p.p.u.p.-.>.:.-.-.%.c.c.c.c.c.",
"c.c.c.c.c.c.c.c.c.b.c.c.c.c.c.c.c.b.c.c.c.c.c.c.M.c.g.s.c.c."
};
