/* XPM */
static char *_591798817322[] = {
/* columns rows colors chars-per-pixel */
"30 30 186 2 ",
"   c #BE762E",
".  c #BF772F",
"X  c #B77737",
"o  c #BA7530",
"O  c #BB7530",
"+  c #BB7631",
"@  c #BB7633",
"#  c #BA7733",
"$  c #BF7430",
"%  c #BE7530",
"&  c #BC7630",
"*  c #BC7631",
"=  c #BC7533",
"-  c #B87735",
";  c #BA7635",
":  c #BB7635",
">  c #B87737",
",  c #BA7637",
"<  c #B3773B",
"1  c #B5773A",
"2  c #B4783C",
"3  c #DB6F03",
"4  c #DA6D04",
"5  c #DB6E05",
"6  c #D96E06",
"7  c #DB6E07",
"8  c #DA6F07",
"9  c #D66F0A",
"0  c #D86E08",
"q  c #D96F09",
"w  c #DA6E09",
"e  c #D96F0B",
"r  c #D77009",
"t  c #D7700B",
"y  c #D6700C",
"u  c #D4700E",
"i  c #DA700A",
"p  c #D26F11",
"a  c #D66F10",
"s  c #CF7215",
"d  c #CE7016",
"f  c #CF7117",
"g  c #CD7217",
"h  c #CC7118",
"j  c #CF7119",
"k  c #CD7219",
"l  c #CC721A",
"z  c #CD731B",
"x  c #CB731C",
"c  c #C9731E",
"v  c #C8721F",
"b  c #CC721C",
"n  c #CC741D",
"m  c #D37110",
"M  c #D07113",
"N  c #D37012",
"B  c #D27112",
"V  c #D27113",
"C  c #D47010",
"Z  c #D07115",
"A  c #D27015",
"S  c #C57222",
"D  c #C67323",
"F  c #C57423",
"G  c #C67422",
"H  c #C47324",
"J  c #C67325",
"K  c #C37427",
"L  c #C57425",
"P  c #C87320",
"I  c #C97320",
"U  c #C87323",
"Y  c #C17328",
"T  c #C27429",
"R  c #C37429",
"E  c #C1752A",
"W  c #C2742A",
"Q  c #AE7945",
"!  c #AD7A45",
"~  c #AC7846",
"^  c #AD7947",
"/  c #AD7949",
"(  c #AC7A49",
")  c #B27640",
"_  c #B07742",
"`  c #B17841",
"'  c #B37840",
"]  c #B07943",
"[  c #A77A50",
"{  c #A37C55",
"}  c #A97A50",
"|  c #EC8E34",
" . c #E68F3F",
".. c #E89039",
"X. c #BF9871",
"o. c #BF9972",
"O. c #BD9975",
"+. c #BF9974",
"@. c #BD9977",
"#. c #BC9A77",
"$. c #B7997D",
"%. c #BB9A79",
"&. c #B99A7B",
"*. c #BC9979",
"=. c #BC9B78",
"-. c #B99A7D",
";. c #B89B7D",
":. c #B89A7E",
">. c #B99A7E",
",. c #B99B7F",
"<. c #BA9B7E",
"1. c #BA9B7F",
"2. c #DF9146",
"3. c #DE9247",
"4. c #CE955E",
"5. c #D79352",
"6. c #D69555",
"7. c #D89453",
"8. c #D19559",
"9. c #E29142",
"0. c #C79767",
"q. c #CB9660",
"w. c #CB9662",
"e. c #CA9762",
"r. c #CE9560",
"t. c #CD9660",
"y. c #CA9664",
"u. c #C99766",
"i. c #CA9867",
"p. c #C69769",
"a. c #C6976B",
"s. c #C4976D",
"d. c #C6976D",
"f. c #C5986E",
"g. c #C4996E",
"h. c #C29870",
"j. c #C09972",
"k. c #C19A73",
"l. c #C09874",
"z. c #AF9D87",
"x. c #AE9D89",
"c. c #AF9D89",
"v. c #AF9C8B",
"b. c #AE9D8D",
"n. c #AD9D8E",
"m. c #B69B80",
"M. c #B59B82",
"N. c #B19B84",
"B. c #B49B85",
"V. c #B29C85",
"C. c #B19C87",
"Z. c #B39D86",
"A. c #B29C87",
"S. c #B49C84",
"D. c #A69D94",
"F. c #A79E95",
"G. c #A79E97",
"H. c #A69F97",
"J. c #AB9D90",
"K. c #AA9E90",
"L. c #AA9E92",
"P. c #AD9D90",
"I. c #AC9E91",
"U. c #AA9D94",
"Y. c #A89E94",
"T. c #A89E95",
"R. c #A49F99",
"E. c #A49F9B",
"W. c #A09F9D",
"Q. c #A39F9C",
"!. c #A49F9C",
"~. c #9EA09F",
"^. c #A3A09B",
"/. c #A1A09C",
"(. c #A1A09E",
"). c #A2A19F",
"_. c #9E9FA1",
"`. c #9FA1A0",
"'. c #9DA1A2",
"]. c #9FA0A2",
"[. c #9FA0A4",
"{. c #A0A0A0",
"}. c #A0A0A2",
"|. c #A0A1A3",
" X c #A1A1A3",
".X c #A0A1A5",
/* pixels */
"].].].]._._.|._.|._.~.).].].].].|.^.c.%.a.w.r.a.%.c.^.].].].",
"].].].].|._._.|._.|.|.~.].~.D.n.n.M.s.~ 1 > > 2 ~ %.D.].].].",
"].].|.]._.|.[._.|.|._.|.].D.$.s.t.> L k g s p A z > N.[.].].",
"].].].].|._.}.}..XW.D.n.N.+.` # . R R P B w w w C @ N.].].].",
"_.].].].].].}._._.T.-.u.# G k c + Q %.j.  g t a R ( n.].].].",
"].].].].].~.!.T.n.-.Q R B 9 B L 4.%.D.J.s.1 R # i.,.D.].].].",
"].].].].].^.b.m.u.@ I p w B R Q M.^.~.^.^.S.M.N.n.D.).].].].",
"~.).].].].^.+.2 R k B u B H w.-.D.].].].'.~.|.|.].].].].].].",
"_.}.}.}.[.N.> k B p l G   Q M.D.).].]._.].].|._._.|._.|._.|.",
".X_.}.W.J.j.L t 9 d R 8.a.$.D.].].].].].].]._.|.|._.|._.|._.",
"~._.}.J.f.* G c n E ~ %.c.D.|.|..X].].].]._.|._.].]._.|._.|.",
"~.).G.-.* n ..n c 9.r.h.%.S.n.n.N.N.T.).~.|._.|.'.'.|._.|._.",
"|.T.-.r.I u t t u B k c G   ( ( * > +.J.!.|.].].].].].]._.|.",
"}.n.} E B 5 5 i C C w 5 3 B 3.3.C g < +.N.T.D.).].].].].|._.",
"}.b.] H u 6 5 B R R C 6 6 i u B w t k R y.*.N.P.^.].].]._.|.",
"}.b.8.I A a B H w.u.# L H H G v z B C f R 1 Q #.D.].].].|._.",
"_.c.8.G c L   r.M.n.N.M.M.M.M.+.Q   S k g k k > C.|._.|._.|.",
"}.c.< G c 9.> s.n.|.].].].].].D.$.a.4.# k w 6 L M.}.|._.|._.",
"_.c.2 P A A H r.n.|.].).].].].).D.J.n.+.+ A u L M.|.}._._.|.",
"_.n.u.R g A L ` M.D.D.).|.].].].].].|.n.t.L A L j.P.W.}.|._.",
"|.T.-./ 3.G 7.` [ *.S.J.E._.|._.].].].P.s.> S U > a.P._.|.|.",
"}.W.P.l.# G * 5.5.1 / l.M.n.D.).].].].n.i.* I 9.R _ b.}._._.",
"].~.!.m.W 9 A A g A l L > u.-.P.^.].|.S.* A a k * s.n..X|._.",
"'.].}.c., k B t 3 4 6 t A K ` j.M.c.c.j.c w 9 k > j.T..X_.|.",
"].].].^.%.` R g w 4 5 6 t C k G # 8.2 * B t g L 1 { J.[._.|.",
"].].).^.P.-.u.# I g A C C t w u g k k | t B S 6.0.-.D.].|._.",
"].]._.).W.T.n.-.] @ > * G f i w i u u i 3 A * p.M.D.|.|._.|.",
"].].]._.].].].T.-.j.j.f.4.1 R U P l A g A L Q $.^.|.].].|._.",
"|.}._.|.}.|.|.W.T.T.J.J.n.N.M.-.j.Q 1 > # Q S.D.^.|.].].|.W.",
"}.}.|._.}.}._.}.}.|.|._.].[.|.^.v.%.a.w.w.X.J.].].|.].].}.|."
};
