/* XPM */
static char *_cdcd73abe6f4277903156e7c7c7e2d7o8M0lvTooaoyePOJ[] = {
/* columns rows colors chars-per-pixel */
"30 30 147 2 ",
"   c #157F1D",
".  c #177F1E",
"X  c #177F20",
"o  c #1D7B23",
"O  c #187D21",
"+  c #197E20",
"@  c #1A7D22",
"#  c #197E22",
"$  c #1C7C23",
"%  c #1D7B25",
"&  c #1E7A25",
"*  c #1F7826",
"=  c #1E7A27",
"-  c #217827",
";  c #207927",
":  c #237729",
">  c #23772A",
",  c #24762A",
"<  c #26732D",
"1  c #25752C",
"2  c #27742C",
"3  c #24762C",
"4  c #26762D",
"5  c #27742E",
"6  c #28732E",
"7  c #217829",
"8  c #366A3A",
"9  c #39683E",
"0  c #2A7230",
"q  c #2B7331",
"w  c #2B7132",
"e  c #2C7132",
"r  c #2C7033",
"t  c #2D7233",
"y  c #018F09",
"u  c #008D0A",
"i  c #018E0B",
"p  c #028E0B",
"a  c #05890F",
"s  c #07890F",
"d  c #058B0E",
"f  c #028D0C",
"g  c #048D0C",
"h  c #048C0E",
"j  c #02900A",
"k  c #00900C",
"l  c #0D8615",
"z  c #0C8715",
"x  c #0C8416",
"c  c #0D8517",
"v  c #0E8416",
"b  c #0F8517",
"n  c #058B10",
"m  c #068A10",
"M  c #078B11",
"N  c #088811",
"B  c #088A10",
"V  c #088912",
"C  c #098912",
"Z  c #098813",
"A  c #0B8813",
"S  c #0E8318",
"D  c #13821B",
"F  c #12831B",
"G  c #108419",
"H  c #13821C",
"J  c #15811C",
"K  c #16801C",
"L  c #16821D",
"P  c #16801E",
"I  c #17811F",
"U  c #73BE79",
"Y  c #72BF79",
"T  c #73BE7B",
"R  c #74BC7A",
"E  c #77BB7E",
"W  c #76BE7C",
"Q  c #79BB7E",
"!  c #5BCF64",
"~  c #5DCE66",
"^  c #67C76E",
"/  c #68C66E",
"(  c #63C86A",
")  c #6BC472",
"_  c #6CC374",
"`  c #7FB584",
"'  c #7EB784",
"]  c #7AB980",
"[  c #7CB882",
"{  c #7DB882",
"}  c #89AE8D",
"|  c #8AAF8E",
" . c #82B386",
".. c #81B585",
"X. c #80B685",
"o. c #81B587",
"O. c #83B487",
"+. c #83B389",
"@. c #84B389",
"#. c #87B18B",
"$. c #84B588",
"%. c #87B18D",
"&. c #86B38C",
"*. c #88B08D",
"=. c #88B08E",
"-. c #8BB08F",
";. c #8EAA91",
":. c #8FAB92",
">. c #8BAE90",
",. c #8CAF91",
"<. c #8CAD92",
"1. c #8EAC92",
"2. c #8FAD93",
"3. c #8FAB94",
"4. c #8EAC94",
"5. c #92A796",
"6. c #95A797",
"7. c #92A995",
"8. c #91AA95",
"9. c #93A897",
"0. c #92A997",
"q. c #95A799",
"w. c #96A699",
"e. c #96A69B",
"r. c #96A69C",
"t. c #98A59B",
"y. c #99A29D",
"u. c #9BA19F",
"i. c #9AA39E",
"p. c #9CA09F",
"a. c #99A49C",
"s. c #98A59C",
"d. c #9AA49C",
"f. c #93A899",
"g. c #94A998",
"h. c #96A89A",
"j. c #9E9FA1",
"k. c #9DA1A0",
"l. c #9FA1A0",
"z. c #9CA2A0",
"x. c #9DA1A2",
"c. c #9FA0A2",
"v. c #9FA0A4",
"b. c #A0A2A1",
"n. c #A0A0A2",
"m. c #A0A1A3",
"M. c #A1A1A3",
/* pixels */
"c.j.c.c.n.c.v.c.c.c.m.j.v.n.j.n.j.j.v.c.c.c.c.c.c.n.b.c.c.c.",
"c.c.c.c.i.r.r.e.g.0.<.| | | | | | | | | -.| <.*.*.4.g.t.c.v.",
"c.c.c.s.f.| @.` ..E % J . J J . J I J J J J . J J > @.g.s.v.",
"c.z.e.<...w 1 & & @ m f d d p j k f f f f f f f p b 6 *.r.v.",
"j.e.| w @ b z A A A h h z z d f f f f f p p p p p N X E 0.j.",
"c.f.{ & b m A A A A A c X ( F F J J J I J F A h p h z > 4.v.",
"c.0.6 . H J o - & - 7 7 3 < r ` %.*.| | | { / b m f h @ <.c.",
"c.0.{ 1 1 R { ..X.` ` ` ` O.<.0.i.j.j.z.r.%.> c m h N & <.c.",
"n.i.0.3.4.0.9.g.g.g.e.0.e.g.t.i.c.v.v.r.%.t o ! d A @ Q 0.c.",
"c.j.n.c.c.m.j.c.v.m.c.c.c.c.j.n.v.v.v.f...> . b h b 5 *.t.n.",
"c.c.c.c.c.c.c.c.n.n.j.c.c.c.n.c.c.c.v.g.` 7 b d p J O.t.p.c.",
"m.c.c.c.c.c.c.c.i.i.c.c.j.c.c.c.c.c.v.f.E I m f p F  .e.g.0.",
"c.c.c.c.j.n.c.i.5.0.i.n.c.n.c.c.n.c.c.<.& m p p p z R ` ..{ ",
"c.m.c.c.n.s.3.%.O.9 <.<.<.*.| | *.<.*.] c p p p p A @ 7 5 6 ",
"n.p.c.c.c.3.1 @ & 7 1 7 @ J J . J J J c m f p p p p A F 1 W ",
"b.c.c.c.n.| @ m b ~ J ! m f A A A A h p p h A A A b F % r { ",
"n.n.c.c.c.<.7 b m A H c m A . * - X d j p A X & & 1 ..<.0.0.",
"n.c.c.n.c.0.{ 7 X @ 7 _ @ % Q [ R ^ A j p z R ....@.r.n.j.n.",
"c.c.c.c.n.i.0.<.<.<.:.:.<.<.0.*.R J A f u F O.e.g.e.p.c.n.c.",
"c.c.c.c.n.n.n.n.c.j.n.n.c.i.i.| & A h h b = :.c.c.c.c.c.c.c.",
"c.c.c.c.n.c.n.c.c.c.c.c.c.z.f.` J d f z > @.e.j.n.c.c.c.c.c.",
"c.c.c.c.c.c.c.c.c.c.c.c.c.g.O.> b f d . ` 0.i.c.c.c.c.c.c.c.",
"c.c.c.c.c.c.c.c.c.c.n.n.c.<.= b f d b & | s.p.n.c.c.c.c.c.c.",
"c.c.c.c.c.c.c.c.c.n.j.s.f.` H f f A . Q 0.n.n.n.c.c.c.c.c.c.",
"c.n.c.c.c.c.c.c.c.c.c.f.{ @ z k p c < %.r.j.n.n.n.c.v.v.c.c.",
"p.n.c.v.c.c.c.c.c.z.s.@.= c m m m J ..f.s.c.n.n.c.c.c.c.c.c.",
"c.c.c.c.c.c.c.c.c.t.*.q H m b b c - *.i.c.c.c.c.c.c.c.c.c.c.",
"c.c.c.c.c.c.c.c.c.t.*.t @ J ) 1 1 { f.c.c.c.c.c.c.c.c.c.c.c.",
"c.c.c.c.c.c.c.c.n.i.s.:.8 ` *.0.0.0.s.n.n.n.j.n.c.c.n.n.c.c.",
"c.c.c.c.c.c.c.c.c.n.n.s.0.4.t.c.c.c.c.c.n.m.m.n.c.c.n.n.c.c."
};
