/* XPM */
static char *_591798797593[] = {
/* columns rows colors chars-per-pixel */
"30 30 84 1 ",
"  c #141A56",
". c #0F176A",
"X c #0E186D",
"o c #10176F",
"O c #10186B",
"+ c #0B177D",
"@ c #0B167F",
"# c #0D167D",
"$ c #0D167F",
"% c #0B1682",
"& c #0B1584",
"* c #0B1586",
"= c #0C1685",
"- c #0A158B",
"; c #061298",
": c #071399",
"> c #07139B",
", c #091399",
"< c #0612A4",
"1 c #0513A7",
"2 c #0612A6",
"3 c #0312AB",
"4 c #0411AB",
"5 c #0411AD",
"6 c #0411AF",
"7 c #0210B7",
"8 c #0310B7",
"9 c #0210B9",
"0 c #0210BB",
"q c #000FC0",
"w c #000EC1",
"e c #000FC2",
"r c #020EC2",
"t c #000FC4",
"y c #0010C2",
"u c #9E9FA1",
"i c #9F9EA3",
"p c #9E9FA3",
"a c #9F9FA9",
"s c #9D9FAB",
"d c #9F9FAB",
"f c #9C9FAE",
"g c #9A9FB3",
"h c #9D9EB0",
"j c #9C9FB0",
"k c #9C9EB3",
"l c #9A9FB5",
"z c #9A9EB7",
"x c #999DB8",
"c c #9A9EB9",
"v c #999EBB",
"b c #9A9EBB",
"n c #A09FA4",
"m c #9CA0A1",
"M c #9FA1A0",
"N c #9DA1A2",
"B c #9FA0A2",
"V c #9DA1A4",
"C c #9FA0A4",
"Z c #9FA0A5",
"A c #9DA0A7",
"S c #9DA0A9",
"D c #A0A0A2",
"F c #A0A1A3",
"G c #999DC2",
"H c #999DC3",
"J c #989DC5",
"K c #989DC7",
"L c #999EC6",
"P c #969DCB",
"I c #959DCE",
"U c #969CCE",
"Y c #989CC9",
"T c #989CCB",
"R c #959BD5",
"E c #959BD7",
"W c #969AD7",
"Q c #939CD5",
"! c #929AD8",
"~ c #939BD9",
"^ c #959BD9",
"/ c #959ADA",
"( c #939ADE",
") c #9299E9",
/* pixels */
"BBBBBBBBBBBBniBBBBBBBBBBBMBBmV",
"BBBBBBBBBBuCdhklldCCBBBBBBBBBm",
"nnBBBBBBBBBSbY^()PhFBCBBBBBBBB",
"nnBBBBBBBCSbWo$*&.vuBuBBCBBBBB",
"BBBBBBBBBab^-1468&HFFuuFBBBBBB",
"BBBBBBBCSb^$3yeee;PFuFFuBBBBBB",
"BBBBBBBSb^-40eeey;TuFuuFBBBBBB",
"BBBBBCSbW$6eeeeee,TFuFFFBBBBBB",
"BBBnBSb!-30eeeeee,TuFuFuMMBBBB",
"BBuFSvQ$4eee0eeee,TFuFuFMBBBBB",
"CBBSb^-40yeeeeeet>TuFuFuBBBBBB",
"CBCib *;;;,17eeet>TFuFuFBBBBBB",
"BBBBSgHPTTT)<eeet>TuBBBBBBBBBB",
"BBBBmBBBBBBT;yeey:TFBBBBBBBBBB",
"CCBBBBBBBBFT,eeey;TBMMBBBBBBBB",
"CCBBBBBBBBBT;eeey>TBBBBBBBBBBB",
"BBBBBBBBnBBP;yeee;TBBBBBBBBBBB",
"BBBBBBBBFBBP,eeey:TBBCBBBBBBBB",
"BBBBBmBBBBBT;eeee;TBBBBBBBBBBB",
"BBBBmBBBBBBT>yeee,TBBBBBBBBBBB",
"BBBBCBBBBBBT,eeey>TBBBBBBBBBBB",
"BBBCBBBBBBBT;eeey>TBBBBBBBBBBB",
"BBCCBBBBBBnY>yeey;TBBBBBBBBBBB",
"BBCCSkHPTTT)1teey<)TTTTHgSCBBB",
"FnBCbW&;>;:<7eeee8<:;::%RbiCBB",
"FFBfHo1eyeeyeeeerreeeey1oHSBBB",
"MMBl^$4yeyeeeeeyeeeeyee6@QlCBB",
"MBBhPO->;>;,:::;::::>>;-XPjCBB",
"BBBCgbHTTTTTTTTTYYTTTTTHvgCBBB",
"BBBBBBBBBFBBBBnFFnBnBBBBFBBBCB"
};
