/* XPM */
static char *_591798807674[] = {
/* columns rows colors chars-per-pixel */
"30 30 138 2 ",
"   c #3F1312",
".  c #3D1314",
"X  c #3F1314",
"o  c #3B1415",
"O  c #3C1414",
"+  c #3E1415",
"@  c #341817",
"#  c #460E0D",
"$  c #470F0E",
"%  c #4F0B08",
"&  c #4D0C0A",
"*  c #4D0D0B",
"=  c #4E0D0B",
"-  c #4A0D0C",
";  c #490F0D",
":  c #4A0E0D",
">  c #4B0E0D",
",  c #490F0E",
"<  c #4D0D0D",
"1  c #5D0503",
"2  c #5F0602",
"3  c #580704",
"4  c #5B0705",
"5  c #5F0504",
"6  c #5C0704",
"7  c #5C0605",
"8  c #5E0604",
"9  c #520B07",
"0  c #570804",
"q  c #570905",
"w  c #570907",
"e  c #550A07",
"r  c #590805",
"t  c #580905",
"y  c #5B0804",
"u  c #580807",
"i  c #590A06",
"p  c #5C0806",
"a  c #510B09",
"s  c #520B09",
"d  c #510B0B",
"f  c #540A09",
"g  c #500C09",
"h  c #500C0B",
"j  c #530C0A",
"k  c #43100F",
"l  c #43120E",
"z  c #46100E",
"x  c #48100F",
"c  c #4A100F",
"v  c #470F10",
"b  c #431110",
"n  c #421210",
"m  c #421212",
"M  c #441110",
"N  c #461010",
"B  c #610301",
"V  c #600500",
"C  c #600502",
"Z  c #620402",
"A  c #600703",
"S  c #600504",
"D  c #9F9F9F",
"F  c #A09E9F",
"G  c #A79D9C",
"H  c #A69D9E",
"J  c #A79D9E",
"K  c #A49E9E",
"L  c #A79E9F",
"P  c #AB9B9B",
"I  c #AE9998",
"U  c #AE9A99",
"Y  c #AF9A99",
"T  c #AD999A",
"R  c #AF999B",
"E  c #AD9B9B",
"W  c #AE9A9B",
"Q  c #AB9B9C",
"!  c #AD9A9C",
"~  c #AF9B9C",
"^  c #A89C9C",
"/  c #A99D9D",
"(  c #AA9C9C",
")  c #A89E9D",
"_  c #A89C9E",
"`  c #B39796",
"'  c #B69795",
"]  c #B59797",
"[  c #B69697",
"{  c #BF9392",
"}  c #BD9492",
"|  c #BD9394",
" . c #B99595",
".. c #BB9594",
"X. c #BB9495",
"o. c #B99694",
"O. c #B89695",
"+. c #B89697",
"@. c #BC9494",
"#. c #B49897",
"$. c #B79896",
"%. c #B59799",
"&. c #B79798",
"*. c #B09898",
"=. c #B19999",
"-. c #B29899",
";. c #B09B9A",
":. c #B29A9A",
">. c #B69898",
",. c #A1A09E",
"<. c #9E9FA1",
"1. c #9F9FA1",
"2. c #9F9EA3",
"3. c #A19FA0",
"4. c #A39FA0",
"5. c #A19FA2",
"6. c #A69DA0",
"7. c #A49EA0",
"8. c #A59FA1",
"9. c #A09FA4",
"0. c #9FA1A0",
"q. c #9DA1A2",
"w. c #9FA0A2",
"e. c #9EA2A3",
"r. c #9FA0A4",
"t. c #A0A0A0",
"y. c #A2A0A1",
"u. c #A0A0A2",
"i. c #A0A1A3",
"p. c #CE8D89",
"a. c #CE8D8B",
"s. c #CA8E8D",
"d. c #CB8E8D",
"f. c #C98F8E",
"g. c #D28C8C",
"h. c #C39190",
"j. c #C09292",
"k. c #C09495",
/* pixels */
"w.w.<.w.u.w.w.w.w.w.u.w.w.w.w.w.w.w.w.w.w.w.r.w.w.3.w.w.w.w.",
"w.u.F 8._ K P P W W W =.W =.W W W I U ;.W U =.! W K 3.w.w.w.",
"u.u._ W ` O.{ z & g g g g 9 g g g g % s g g g & z .._ w.w.w.",
"u.K =.O b > & s e t t t t e t t r e s f t t p t g k P w.w.w.",
"u._ | > f e s & - x x x x $ > $ x z $.:.b > s g 9 z _ w.w.w.",
"w.P x w 6 6 f f.j.....O.&.[ O.[ O.=.K K =.O.j.b k ..P w.w.w.",
"w.W & 2 C 2 s f...` _ _ _ K _ _ K K u.0.K _ _ W _ P 0.w.w.w.",
"w.I & C C y s b @ K F u.u.u.u.u.w.w.u.u.w.w.w.u.u.u.w.w.w.w.",
"u.W d B C e > @.W ,.u.0.0.0.w.w.3.3.w.u.w.w.<.<.w.w.w.w.2.9.",
"w.W d 6 C 7 > | Q 3.3.3.,.K _ K K K K _ _ K 8.3.u.w.w.w.9.i.",
"w.W d Z C y d h.=._ ,.3._ W &.[ [ $.O.[ [ $.W Q 3.w.w.w.<.u.",
"w.W = 6 6 2 w = k O.=.=...  N > $ $ > > x k   :.Y F u.w.w.w.",
"w.P } & t C 6 t u s s s s e t t t e t t t e e - } =.F u.w.w.",
"w.K :.O > g t 7 e u 7 6 2 2 6 t f g f t 2 C C 7 > o W K ,.w.",
"r.u.6._ W $.k > $ > d u 6 6 t d.O.[ O.b t B C 6 g z   =._ u.",
"r.u.u.u.u.F =.' [ ..{ > = = v o _ 3.Q ` > e 6 2 e a.N O.K w.",
"w.w.w.w.w.u.K _ K P _ P W W ! _ u.u.F _ Y @.j A S e x O._ w.",
"w.w.w.w.w.w.w.u.w.w.w.w.w.w.r.w.w.u.w.w.w.E & 6 C t x O.K w.",
"w.w.u.u.w.w.w.w.w.w.w.w.w.w.w.w.u.u.w.w.w.W $ t 6 t > O._ u.",
"w.w.u.u.w.w.w.w.w.w.w.w.w.w.w.w.w.u.w.w.w._ j.h t f x O._ w.",
"q.q.w.w.0.0.w.w.w.w.w.w.w.w.w.w.w.r.<.<.w.P O.> = = v O.K w.",
"q.w.w.w.0.0.w.w.w.w.w.w.w.w.w.w.w.3.3.8.K W j.> g.= o =.K w.",
"w.w.w.w.w.u.w.w.w.w.u.w.w.w.w.w.w.3.Q W ` { s e 7 = &.K 3.u.",
"w.w._ P _ _ _ K K P W W W P Q P W -.O.o N & 6 C 2 s ! w.i.w.",
"w._ O.b @.$.O.O.O.} > g h > O o > s f f t t S C C s ! 2.w.w.",
"w.P N & > x x x x & 7 C C 7 d.a.t C C 6 p f e s s b _ r.w.w.",
"u.! N g f t t q 7 t 6 S C S y y S C C 7 & N o [ =.Q 8.u.q.q.",
"w._ O.z & g g & g s h s g g g g g g & > @.[ W Q 3.r.w.w.w.w.",
"w.u._ W W W W ` W =.W I =.Y W W ! W ! W _ K 8.3.3.r.w.w.w.w.",
"w.u.w.w.w.w.w.w.w.w.0.0.w.w.w.w.<.3.w.u.u.3.r.r.w.w.w.w.w.w."
};
