/* XPM */
static char *_591798786620[] = {
/* columns rows colors chars-per-pixel */
"30 30 146 2 ",
"   c #437D57",
".  c #48795B",
"X  c #099F3B",
"o  c #099F3C",
"O  c #0A9E3C",
"+  c #0D9D3C",
"@  c #0C9E3C",
"#  c #0C9D3E",
"$  c #0D9D3E",
"%  c #0F9C3E",
"&  c #12983F",
"*  c #119A3E",
"=  c #109B3E",
"-  c #00A535",
";  c #01A437",
":  c #00A537",
">  c #02A339",
",  c #03A339",
"<  c #08A03B",
"1  c #0AA03D",
"2  c #0F9C40",
"3  c #139741",
"4  c #179541",
"5  c #169641",
"6  c #179742",
"7  c #179744",
"8  c #1D9345",
"9  c #1E9345",
"0  c #1B9444",
"q  c #1A9544",
"w  c #1B9445",
"e  c #189644",
"r  c #139940",
"t  c #119A40",
"y  c #109B40",
"u  c #149940",
"i  c #149842",
"p  c #169842",
"a  c #189843",
"s  c #218F46",
"d  c #218F48",
"f  c #258E49",
"g  c #248F49",
"h  c #278E49",
"j  c #278D4B",
"k  c #258E4B",
"l  c #2B8B4B",
"z  c #288D49",
"x  c #288D4B",
"c  c #2B8B4C",
"v  c #2C8A4C",
"b  c #2F884E",
"n  c #288C4C",
"m  c #298C4C",
"M  c #32874E",
"N  c #30884E",
"B  c #219147",
"V  c #229047",
"C  c #229049",
"Z  c #2F8850",
"A  c #378352",
"S  c #308750",
"D  c #338650",
"F  c #328750",
"G  c #358550",
"H  c #358552",
"J  c #57CD7F",
"K  c #50D07D",
"L  c #6CBF89",
"P  c #6FBD8B",
"I  c #79B78E",
"U  c #72BA8C",
"Y  c #72BB8D",
"T  c #73BB8D",
"R  c #77B88E",
"E  c #76B98E",
"W  c #79B790",
"Q  c #7AB690",
"!  c #7DB590",
"~  c #7CB690",
"^  c #7DB791",
"/  c #7CB592",
"(  c #7DB592",
")  c #7EB492",
"_  c #77B890",
"`  c #67C086",
"'  c #61C484",
"]  c #60C684",
"[  c #69C089",
"{  c #6BC089",
"}  c #6DC08A",
"|  c #84AF94",
" . c #87AF95",
".. c #8AAD97",
"X. c #88AE97",
"o. c #8CAB99",
"O. c #8EAB99",
"+. c #8EAA9B",
"@. c #8FAA9B",
"#. c #8BAC99",
"$. c #89AF98",
"%. c #94A59B",
"&. c #93A79C",
"*. c #95A69C",
"=. c #96A69C",
"-. c #96A79D",
";. c #96A59E",
":. c #95A69E",
">. c #96A79F",
",. c #99A29F",
"<. c #9CA29E",
"1. c #99A49E",
"2. c #98A59E",
"3. c #90A89A",
"4. c #91A99B",
"5. c #92A89B",
"6. c #91A99C",
"7. c #92A89C",
"8. c #83B194",
"9. c #83B195",
"0. c #81B294",
"q. c #80B394",
"w. c #81B295",
"e. c #85B094",
"r. c #84B095",
"t. c #85B095",
"y. c #84B295",
"u. c #81B495",
"i. c #88B096",
"p. c #9E9FA1",
"a. c #9E9FA3",
"s. c #9AA3A0",
"d. c #9AA3A2",
"f. c #9FA1A0",
"g. c #9CA2A0",
"h. c #9DA1A2",
"j. c #9FA0A2",
"k. c #9CA2A2",
"l. c #9EA2A3",
"z. c #99A4A0",
"x. c #9BA4A1",
"c. c #9DA1A4",
"v. c #9FA0A4",
"b. c #A0A0A0",
"n. c #A0A0A2",
"m. c #A0A1A3",
/* pixels */
"j.j.j.p.m.f.m.p.j.j.m.n.n.j.j.d.m.j.j.j.j.j.m.n.p.j.j.j.j.j.",
"j.j.j.j.<.j.p.m.d.j.p.m.m.j.d.*.&.>.5.%.,.j.z.1.j.j.j.j.j.j.",
"j.j.m.j.j.d.j.j.j.j.j.j.j.z.5.e.~ R R 8.%.g.7.5.,.j.j.j.j.j.",
"p.j.j.j.j.z.7.+.X.e.e.e.e.8.R G c f f b ~ e.  u.*.j.j.j.j.j.",
"j.j.<.m.m.%.8.P d e 7 7 7 6 u * 2 O % % u 9 d P @.c.j.j.j.j.",
"j.j.j.<.%.e.D 9 1 ; , < O % 6 6 e u i % O O 7 j 8.*.d.c.j.j.",
"j.j.j.*.8.N q < , , % 7 C b ~ | | 8.R Z e 7 K C H 8.7.m.j.j.",
"j.j.j.5.R f @ , O i C [ Y 8.*.j.d.z.7.~ ] 6 6 9 D 8.*.c.j.j.",
"v.m.j.5.R f % 1 e D q.o.5.%.g.m.m.j.1.| ' i O e ~ *.<.m.p.m.",
"v.c.j.5.8.D u 7 [ 8.%.j.j.j.j.j.j.j.z.e.d i u z $.m.p.p.m.p.",
"n.p.j.j.*.e.N G e.*.d.j.j.j.j.j.m.z.5.R e = c ~ *.p.p.m.p.m.",
"p.m.j.j.c.*.e.e.>.j.j.j.j.j.j.j.g.o.^ l i q R 7.d.v.m.p.m.p.",
"p.m.p.m.j.d.%.%.,.j.j.j.j.m.p.d.5.^ B i * f e.1.<.j.j.<.p.m.",
"m.p.m.p.j.j.<.m.j.j.j.j.c.c.m.*.e.b * = C Y 5.j.j.j.<.m.m.p.",
"p.m.m.p.j.j.j.j.j.d.j.j.j.j.p.5.Y B 6 C I 7.z.j.j.j.n.n.p.m.",
"m.p.m.p.j.j.j.j.j.j.j.j.j.z.5.~ C u B P o.j.j.j.d.j.p.n.m.p.",
"p.m.p.m.p.m.p.m.j.j.j.j.j.5.Y s % u N 8.*.c.p.m.p.m.p.m.n.n.",
"m.p.m.p.m.p.p.m.j.j.j.d.7.I C 2 % 9 ~ 5.z.a.m.p.m.p.m.p.n.n.",
"p.m.p.m.<.j.m.p.j.j.c.7.Y C % % 9 [ $.z.j.m.p.m.p.m.p.m.p.m.",
"m.p.p.m.m.j.j.j.d.*.@.~ C = 1 u b 8.z.j.j.p.m.p.m.p.m.p.m.p.",
"n.m.j.j.m.j.j.1.@.8.P d % O % C 8.*.z.c.j.j.j.j.p.m.p.m.p.m.",
"n.m.j.j.j.j.1.+.~ Z w 2 1 % C Y 7.c.c.c.j.j.j.j.m.p.m.p.m.p.",
"p.m.j.j.m.z.5.~ C % O O % B ~ 7.z.j.j.j.j.j.j.j.n.n.p.n.j.<.",
"m.p.j.j.,.+.~ c % , 1 u d Y 7.c.*.7.7.5.7.7.7.*.<.n.m.n.f.m.",
"m.p.m.,.7.~ C 1 , < 9 N u.7.z.*.8.R _ R _ R I 8.*.j.j.j.p.m.",
"p.m.m.*.e.D i , ; < J ` ~ e.e.~ Z f j z f f b G i.*.j.j.m.p.",
"j.j.n.*./ c % , ; , < = u e e u % 1 % O O * 9 f G . &.j.p.m.",
"j.j.j.*.8.D C e 7 e e a i y % % O % y u q 9 f L R u.%.j.m.p.",
"j.j.m.<.*.@.$.e.e.e.e.) _ G c C j c G _ 8.e.$.+.+.%.<.j.m.n.",
"j.j.c.j.p.m.p.m.j.j.j.1.+.) R [ [ Y ) $.1.j.j.j.m.m.j.p.n.n."
};
