/* XPM */
static char *ab12375c92754b77a33a805c6b5ed802nAQFVpgocEbcMLMq[] = {
/* columns rows colors chars-per-pixel */
"30 30 19 1 ",
"  c black",
". c #010000",
"X c #000100",
"o c #010101",
"O c #000002",
"+ c #010103",
"@ c #9EA09F",
"# c #9E9FA1",
"$ c #9FA1A0",
"% c #9DA1A2",
"& c #9FA0A2",
"* c #9DA1A4",
"= c #9FA0A4",
"- c #A0A0A0",
"; c gray63",
": c #A0A2A1",
"> c #A0A0A2",
", c #A0A1A3",
"< c #A1A1A3",
/* pixels */
"&&&&%%&&&&&&&&&&@@-+@@&&&>&&&&",
"&&&&%%&&&&&&&&&++++++++&>>&&&&",
"&&&&&&&&&&&&@@+++++++++&&&&&&&",
"&&&&&&&&&&&&+++++++&@@@&&&&&&&",
"&&&&&&&&&>@+++++&>&&&&&&&&&&&&",
"%%&&&&&&&#-+++++&&&&&&&&&&&&&&",
"**&&&&&&&&+++++@&&&&&&#&&&&&&&",
"**&&&&&&#&++++&#&&&&&&&&&&&&&&",
"&&&&&&>#>++++@&&&&&&>&&&&&&&&&",
"&&&&&&&@@++++@@&>#&>&,&&&&&&&&",
"&&&&&&@+++++>&&&&@&&&&&&&&&&&&",
"&&&&&&+++++-&&>&&&&&&&&&&&&&&&",
"&&&&#&++++>>&&&&&&>#&&&&&&&&&&",
"&&&&@+++++>>&&&&@+++&&&&&&&&&&",
"&&>>+++++@&&&&&&@+++&&&>>>&&&&",
"&&>>+++++@&&&&&&@+++&&&&>>&&&&",
"@>&&+X++++@#++++@+++@+++++++&&",
"-@&&@@++++++++++++++++++++++&&",
"&&&&&>@++++++++++++++++++++&&#",
"&&&&&&&+++++++++++++++++++&&&@",
"&&&&&&&&&+@&++++@++++++@>&&&&&",
"&&&&&&&&&&&&@@#>@+++@@@@&>&&&>",
"&&&&&&&&&&&&&&&&@+++@->&&&&&&&",
"&&&&&>==&&&&&&&&@+++:@&&&&>&&&",
"&&&&&&&&&&&&&&&#+++++@#&&&&&&&",
"&&&&&&&&&&&&&#&+++++++>&&&&&&&",
"==&&&&&&#&&&#&+++++++++&&&&&&&",
"==&&&&&&&&&&@++++++++++&&&&&&&",
"&&&&&&&&&&&&&&&&@#&&&&&&&&&&&&",
"&&&&&&&&&&&&&&&&&&&&&&&&&&&&&&"
};
