/* XPM */
static char *_801_a41efaf8b7788b9ac87a7105c79193efd2124b845412fb6665e285dbb5061824[] = {
/* columns rows colors chars-per-pixel */
"140 40 29 1 ",
"  c black",
". c #010101",
"X c #020202",
"o c gray1",
"O c #040404",
"+ c #060606",
"@ c gray3",
"# c #090909",
"$ c gray4",
"% c #0B0B0B",
"& c #0C0C0C",
"* c gray5",
"= c gray6",
"- c #101010",
"; c #111111",
": c #151515",
"> c #161616",
", c gray10",
"< c #1E1E1E",
"1 c #222222",
"2 c gray15",
"3 c #272727",
"4 c #444444",
"5 c gray34",
"6 c #585858",
"7 c #5F5F5F",
"8 c #626262",
"9 c #6A6A6A",
"0 c None",
/* pixels */
"00000000000000000000000000000000000000000000000000000<      00000000000000000000000000000000000000000000000000000000000000000000000000000000",
"000000000000000000000000000000000000000000000000000         00000000000000000000000000000000000000000000000000000000000000000000000000000000",
"000000000000000000000000000000000000000000000000            00000000000000000000000000000000000000000000000000000000000000000000000000000000",
"000000000000000000000000000000000000000000000+              00000000000000000000000000000000000000000000000000000000000000000000000000000000",
"000000000000000000000000000000000000000000 .                00000000000000000000000000000000000000000000000000000000000000000000000000000000",
"000000000000000000000000000000000000000                     00000000000000000000000000000000000000000000000000000000000000000000000000000000",
"000000000000000000000000000000000000                        00000000000000000000000000000000000000000000000000000000000000000000000000000000",
"000000000000000000000000000000000                           00000000000000000000000000000000000000000000000000000000000000000000000000000000",
"000000000000000000000000000000                              00000000000000000000000000000000000000000000000000000000000000000000000000000000",
"000000000000000000000000000                                 00000000000000000000000000000000000000000000000000000000000000000000000000000000",
"000000000000000000000000.                                   O>*:::::::::--:::::::::::::::::::::::::::::--:::::;;:::--:::::::::---::---::=,00",
"0000000000000000000003                                                                                                                     5",
"0000000000000000002                                                                                                                         ",
"000000000000000=X                                                                                                                         .X",
"000000000000@O                                                                                                                             o",
"0000000006                                                                                                                                 X",
"0000001                                                                                                                                    o",
"0000                                                                                                                                      .X",
"0X                                                                                                                                        .o",
"                                                                                                                                          .X",
"0  .                                                                                                                                      .X",
"0008                                                                                                                                       o",
"000000&                                                                                                                                    o",
"0000000004o                                                                                                                               .o",
"000000000000<Xo                                                                                                                            o",
"0000000000000007+                                                                                                                         .o",
"0000000000000000000                                                                                                                       XO",
"0000000000000000000000X                                                                                                                    0",
"0000000000000000000000000                                    $000000000000000000000000000000000000000000000000000000000000000000000000000000",
"0000000000000000000000000000%                                #000000000000000000000000000000000000000000000000000000000000000000000000000000",
"00000000000000000000000000000000                             @000000000000000000000000000000000000000000000000000000000000000000000000000000",
"00000000000000000000000000000000000                          $000000000000000000000000000000000000000000000000000000000000000000000000000000",
"00000000000000000000000000000000000000                       $000000000000000000000000000000000000000000000000000000000000000000000000000000",
"00000000000000000000000000000000000000000                    @000000000000000000000000000000000000000000000000000000000000000000000000000000",
"00000000000000000000000000000000000000000000                 $000000000000000000000000000000000000000000000000000000000000000000000000000000",
"000000000000000000000000000000000000000000000009..+          $000000000000000000000000000000000000000000000000000000000000000000000000000000",
"000000000000000000000000000000000000000000000000000 .        &000000000000000000000000000000000000000000000000000000000000000000000000000000",
"000000000000000000000000000000000000000000000000000000o .    ;000000000000000000000000000000000000000000000000000000000000000000000000000000",
"000000000000000000000000000000000000000000000000000000000.   0000000000000000000000000000000000000000000000000000000000000000000000000000000",
"00000000000000000000000000000000000000000000000000000000000000000000000000000000000000000000000000000000000000000000000000000000000000000000"
};
