/* XPM */
static char *_8167_0a9b0a4f6b7d5ce81e56e0c2130d437fdc7722542d9e87c8d13bfef5b607ac6d[] = {
/* columns rows colors chars-per-pixel */
"140 40 29 1 ",
"  c black",
". c #010101",
"X c #020202",
"o c gray1",
"O c #040404",
"+ c #060606",
"@ c gray3",
"# c #090909",
"$ c gray4",
"% c #0B0B0B",
"& c #0C0C0C",
"* c gray5",
"= c gray6",
"- c #101010",
"; c #111111",
": c #151515",
"> c #161616",
", c gray10",
"< c #1E1E1E",
"1 c #222222",
"2 c gray15",
"3 c #272727",
"4 c #444444",
"5 c gray34",
"6 c #585858",
"7 c #5F5F5F",
"8 c #626262",
"9 c #6A6A6A",
"0 c None",
/* pixels */
"0000000000000000000000000000000000000000000000000000000000000000000000000000000   .000000000000000000000000000000000000000000000000000000000",
"000000000000000000000000000000000000000000000000000000000000000000000000000000;    . o000000000000000000000000000000000000000000000000000000",
"000000000000000000000000000000000000000000000000000000000000000000000000000000&        . 000000000000000000000000000000000000000000000000000",
"000000000000000000000000000000000000000000000000000000000000000000000000000000$          +..900000000000000000000000000000000000000000000000",
"000000000000000000000000000000000000000000000000000000000000000000000000000000$                 00000000000000000000000000000000000000000000",
"000000000000000000000000000000000000000000000000000000000000000000000000000000@                    00000000000000000000000000000000000000000",
"000000000000000000000000000000000000000000000000000000000000000000000000000000$                       00000000000000000000000000000000000000",
"000000000000000000000000000000000000000000000000000000000000000000000000000000$                          00000000000000000000000000000000000",
"000000000000000000000000000000000000000000000000000000000000000000000000000000@                             00000000000000000000000000000000",
"000000000000000000000000000000000000000000000000000000000000000000000000000000#                                %0000000000000000000000000000",
"000000000000000000000000000000000000000000000000000000000000000000000000000000$                                    0000000000000000000000000",
"0                                                                                                                    X0000000000000000000000",
"OX                                                                                                                       0000000000000000000",
"o.                                                                                                                         +7000000000000000",
"o                                                                                                                            oX<000000000000",
"o.                                                                                                                               o4000000000",
"o                                                                                                                                    &000000",
"o                                                                                                                                       8000",
"X.                                                                                                                                      .  0",
"X.                                                                                                                                          ",
"o.                                                                                                                                        X0",
"X.                                                                                                                                      0000",
"o                                                                                                                                    1000000",
"X                                                                                                                                 6000000000",
"o                                                                                                                             O@000000000000",
"X.                                                                                                                         X=000000000000000",
"                                                                                                                         2000000000000000000",
"5                                                                                                                     3000000000000000000000",
"00,=::---::---:::::::::--:::;;:::::--:::::::::::::::::::::::::::::--:::::::::*>O                                   .000000000000000000000000",
"00000000000000000000000000000000000000000000000000000000000000000000000000000000                                 000000000000000000000000000",
"00000000000000000000000000000000000000000000000000000000000000000000000000000000                              000000000000000000000000000000",
"00000000000000000000000000000000000000000000000000000000000000000000000000000000                           000000000000000000000000000000000",
"00000000000000000000000000000000000000000000000000000000000000000000000000000000                        000000000000000000000000000000000000",
"00000000000000000000000000000000000000000000000000000000000000000000000000000000                     000000000000000000000000000000000000000",
"00000000000000000000000000000000000000000000000000000000000000000000000000000000                . 000000000000000000000000000000000000000000",
"00000000000000000000000000000000000000000000000000000000000000000000000000000000              +000000000000000000000000000000000000000000000",
"00000000000000000000000000000000000000000000000000000000000000000000000000000000            000000000000000000000000000000000000000000000000",
"00000000000000000000000000000000000000000000000000000000000000000000000000000000         000000000000000000000000000000000000000000000000000",
"00000000000000000000000000000000000000000000000000000000000000000000000000000000      <00000000000000000000000000000000000000000000000000000",
"00000000000000000000000000000000000000000000000000000000000000000000000000000000000000000000000000000000000000000000000000000000000000000000"
};
