/* XPM */
static char *e6548b8de7504f2ffb04723c9224a8390Ldgtus1a5190IVE[] = {
/* columns rows colors chars-per-pixel */
"15 600 31 1 ",
"  c #2C2B2B",
". c #302F2F",
"X c #3F3E3E",
"o c #444343",
"O c #474545",
"+ c #484747",
"@ c #4B4B4B",
"# c #4C4B4B",
"$ c #4C4C4C",
"% c #4E4C4C",
"& c #4F4E4E",
"* c gray32",
"= c #555353",
"- c gray33",
"; c #585757",
": c #5B5B5B",
"> c gray37",
", c #616060",
"< c #636262",
"1 c #646464",
"2 c #686767",
"3 c DimGray",
"4 c #6E6C6C",
"5 c gray43",
"6 c #706E6E",
"7 c #716F6F",
"8 c #737171",
"9 c #747373",
"0 c #777777",
"q c #787777",
"w c gray48",
/* pixels */
"wwwwwwwwwwwwwww",
"wwwwwwwwwwwwwww",
"0wwwwwwwwwwwww0",
"10wwwwwwwwwww01",
"->5wwwwwwwww5>-",
"$*:30wwwww03:*$",
"$*:30wwwww03:*$",
"$*:30wwwww03:*$",
"$*:30wwwww03:*$",
"$*:30wwwww03:*$",
"$*:30wwwww03:*$",
"$*:30wwwww03:*$",
"$*:30wwwww03:*$",
"$*:30wwwww03:*$",
"$*:30wwwww03:*$",
"$*:30wwwww03:*$",
"$*:30wwwww03:*$",
"$*:30wwwww03:*$",
"$*:30wwwww03:*$",
"$*:30wwwww03:*$",
"$*:30wwwww03:*$",
"$*:30wwwww03:*$",
"$*:30wwwww03:*$",
"$*:30wwwww03:*$",
"$*:30wwwww03:*$",
"$*:30wwwww03:*$",
"$*:30wwwww03:*$",
"$*:30wwwww03:*$",
"$*:30wwwww03:*$",
"$*:30wwwww03:*$",
"$*:30wwwww03:*$",
"$*:30wwwww03:*$",
"$*:30wwwww03:*$",
"$*:30wwwww03:*$",
"$*:30wwwww03:*$",
"$*:30wwwww03:*$",
"$*:30wwwww03:*$",
"$*:30wwwww03:*$",
"$*:30wwwww03:*$",
"$*:30wwwww03:*$",
"$*:30wwwww03:*$",
"$*:30wwwww03:*$",
"$*:30wwwww03:*$",
"$*:30wwwww03:*$",
"$*:30wwwww03:*$",
"$*:30wwwww03:*$",
"$*:30wwwww03:*$",
"$*:30wwwww03:*$",
"$*:30wwwww03:*$",
"$*:30wwwww03:*$",
"$*:30wwwww03:*$",
"$*:30wwwww03:*$",
"$*:30wwwww03:*$",
"$*:30wwwww03:*$",
"$*:30wwwww03:*$",
"$*:30wwwww03:*$",
"$*:30wwwww03:*$",
"$*:30wwwww03:*$",
"$*:30wwwww03:*$",
"$*:30wwwww03:*$",
"$*:30wwwww03:*$",
"$*:30wwwww03:*$",
"$*:30wwwww03:*$",
"$*:30wwwww03:*$",
"$*:30wwwww03:*$",
"$*:30wwwww03:*$",
"$*:30wwwww03:*$",
"$*:30wwwww03:*$",
"$*:30wwwww03:*$",
"$*:30wwwww03:*$",
"$*:30wwwww03:*$",
"$*:30wwwww03:*$",
"$*:30wwwww03:*$",
"$*:30wwwww03:*$",
"$*:30wwwww03:*$",
"$*:30wwwww03:*$",
"$*:30wwwww03:*$",
"$*:30wwwww03:*$",
"$*:30wwwww03:*$",
"$*:30wwwww03:*$",
"$*:30wwwww03:*$",
"$*:30wwwww03:*$",
"$*:30wwwww03:*$",
"$*:30wwwww03:*$",
"$*:30wwwww03:*$",
"$*:30wwwww03:*$",
"$*:30wwwww03:*$",
"$*:30wwwww03:*$",
"$*:30wwwww03:*$",
"$*:30wwwww03:*$",
"$*:30wwwww03:*$",
"$*:30wwwww03:*$",
"$*:30wwwww03:*$",
"$*:30wwwww03:*$",
"$*:30wwwww03:*$",
"$*:30wwwww03:*$",
"$*:30wwwww03:*$",
"$*:30wwwww03:*$",
"$*:30wwwww03:*$",
"$*:30wwwww03:*$",
"$*:30wwwww03:*$",
"$*:30wwwww03:*$",
"$*:30wwwww03:*$",
"$*:30wwwww03:*$",
"$*:30wwwww03:*$",
"$*:30wwwww03:*$",
"$*:30wwwww03:*$",
"$*:30wwwww03:*$",
"$*:30wwwww03:*$",
"$*:30wwwww03:*$",
"$*:30wwwww03:*$",
"$*:30wwwww03:*$",
"$*:30wwwww03:*$",
"$*:30wwwww03:*$",
"$*:30wwwww03:*$",
"$*:30wwwww03:*$",
"$*:30wwwww03:*$",
"$*:30wwwww03:*$",
"$*:30wwwww03:*$",
"$*:30wwwww03:*$",
"$*:30wwwww03:*$",
"$*:30wwwww03:*$",
"$*:30wwwww03:*$",
"$*:30wwwww03:*$",
"$*:30wwwww03:*$",
"$*:30wwwww03:*$",
"$*:30wwwww03:*$",
"$*:30wwwww03:*$",
"$*:30wwwww03:*$",
"$*:30wwwww03:*$",
"$*:30wwwww03:*$",
"$*:30wwwww03:*$",
"$*:30wwwww03:*$",
"$*:30wwwww03:*$",
"$*:30wwwww03:*$",
"$*:30wwwww03:*$",
"$*:30wwwww03:*$",
"$*:30wwwww03:*$",
"$*:30wwwww03:*$",
"$*:30wwwww03:*$",
"$*:30wwwww03:*$",
"$*:30wwwww03:*$",
"$*:30wwwww03:*$",
"$*:30wwwww03:*$",
"$*:30wwwww03:*$",
"$*:30wwwww03:*$",
"$*:30wwwww03:*$",
"$*:30wwwww03:*$",
"$*:30wwwww03:*$",
"$*:30wwwww03:*$",
"$*:30wwwww03:*$",
"$*:30wwwww03:*$",
"$*:30wwwww03:*$",
"$*:30wwwww03:*$",
"$*:30wwwww03:*$",
"$*:30wwwww03:*$",
"$*:30wwwww03:*$",
"$*:30wwwww03:*$",
"$*:30wwwww03:*$",
"$*:30wwwww03:*$",
"$*:30wwwww03:*$",
"$*:30wwwww03:*$",
"$*:30wwwww03:*$",
"$*:30wwwww03:*$",
"$*:30wwwww03:*$",
"$*:30wwwww03:*$",
"$*:30wwwww03:*$",
"$*:30wwwww03:*$",
"$*:30wwwww03:*$",
"$*:30wwwww03:*$",
"$*:30wwwww03:*$",
"$*:30wwwww03:*$",
"$*:30wwwww03:*$",
"$*:30wwwww03:*$",
"$*:30wwwww03:*$",
"$*:30wwwww03:*$",
"$*:30wwwww03:*$",
"$*:30wwwww03:*$",
"$*:30wwwww03:*$",
"$*:30wwwww03:*$",
"$*:30wwwww03:*$",
"$*:30wwwww03:*$",
"$*:30wwwww03:*$",
"$*:30wwwww03:*$",
"$*:30wwwww03:*$",
"$*:30wwwww03:*$",
"$*:30wwwww03:*$",
"$*:30wwwww03:*$",
"$*:30wwwww03:*$",
"$*:30wwwww03:*$",
"$*:30wwwww03:*$",
"$*:30wwwww03:*$",
"$*:30wwwww03:*$",
"$*:30wwwww03:*$",
"$*:30wwwww03:*$",
"$*:30wwwww03:*$",
"$*:30wwwww03:*$",
"$*:30wwwww03:*$",
"$*:30wwwww03:*$",
"$*:30wwwww03:*$",
"$*:30wwwww03:*$",
"$*:30wwwww03:*$",
"$*:30wwwww03:*$",
"$*:30wwwww03:*$",
"$*:30wwwww03:*$",
"$*:30wwwww03:*$",
"$*:30wwwww03:*$",
"$*:30wwwww03:*$",
"$*:30wwwww03:*$",
"$*:30wwwww03:*$",
"$*:30wwwww03:*$",
"$*:30wwwww03:*$",
"$*:30wwwww03:*$",
"$*:30wwwww03:*$",
"$*:30wwwww03:*$",
"$*:30wwwww03:*$",
"$*:30wwwww03:*$",
"$*:30wwwww03:*$",
"$*:30wwwww03:*$",
"$*:30wwwww03:*$",
"$*:30wwwww03:*$",
"$*:30wwwww03:*$",
"$*:30wwwww03:*$",
"$*:30wwwww03:*$",
"$*:30wwwww03:*$",
"$*:30wwwww03:*$",
"$*:30wwwww03:*$",
"$*:30wwwww03:*$",
"$*:30wwwww03:*$",
"$*:30wwwww03:*$",
"$*:30wwwww03:*$",
"$*:30wwwww03:*$",
"$*:30wwwww03:*$",
"$*:30wwwww03:*$",
"$*:30wwwww03:*$",
"$*:30wwwww03:*$",
"$*:30wwwww03:*$",
"$*:30wwwww03:*$",
"$*:30wwwww03:*$",
"$*:30wwwww03:*$",
"$*:30wwwww03:*$",
"$*:30wwwww03:*$",
"$*:30wwwww03:*$",
"$*:30wwwww03:*$",
"$*:30wwwww03:*$",
"$*:30wwwww03:*$",
"$*:30wwwww03:*$",
"$*:30wwwww03:*$",
"$*:30wwwww03:*$",
"$*:30wwwww03:*$",
"$*:30wwwww03:*$",
"$*:30wwwww03:*$",
"$*:30wwwww03:*$",
"$*:30wwwww03:*$",
"$*:30wwwww03:*$",
"$*:30wwwww03:*$",
"$*:30wwwww03:*$",
"$*:30wwwww03:*$",
"$*:30wwwww03:*$",
"$*:30wwwww03:*$",
"$*:30wwwww03:*$",
"$*:30wwwww03:*$",
"$*:30wwwww03:*$",
"$*:30wwwww03:*$",
"$*:30wwwww03:*$",
"$*:30wwwww03:*$",
"$*:30wwwww03:*$",
"$*:30wwwww03:*$",
"$*:30wwwww03:*$",
"$*:30wwwww03:*$",
"$*:30wwwww03:*$",
"$*:30wwwww03:*$",
"$*:30wwwww03:*$",
"$*:30wwwww03:*$",
"$*:30wwwww03:*$",
"$*:30wwwww03:*$",
"$*:30wwwww03:*$",
"$*:30wwwww03:*$",
"$*:30wwwww03:*$",
"$*:30wwwww03:*$",
"$*:30wwwww03:*$",
"$*:30wwwww03:*$",
"$*:30wwwww03:*$",
"$*:30wwwww03:*$",
"$*:30wwwww03:*$",
"$*:30wwwww03:*$",
"$*:30wwwww03:*$",
"$*:30wwwww03:*$",
"$*:30wwwww03:*$",
"$*:30wwwww03:*$",
"$*:30wwwww03:*$",
"$*:30wwwww03:*$",
"$*:30wwwww03:*$",
"$*:30wwwww03:*$",
"$*:30wwwww03:*$",
"$*:30wwwww03:*$",
"$*:30wwwww03:*$",
"$*:30wwwww03:*$",
"@*:30wwwww03:*$",
"@*:30wwwww03:*$",
"@*:1wqwqww03:*$",
"@$:39qqqww03:*@",
"@$>190000092:=@",
"O$=180900092:$@",
"+&=<6099q993>&#",
"+$=<6699996<;$+",
"o#=,6669696,;#+",
"+#=,6669666,;#+",
"o#=,5666886,=#+",
"+#=,6666666,=#o",
"o#=,6666664,=#o",
"+#=,6669664,=#+",
"o#=,4666666,=#+",
"+#=,4666666,=#o",
"o#=,6686694,=#o",
"+#=,6686664,=#+",
"o#=,6666865,=@O",
"+#=,4666664,=@O",
"o#=<6686685,=@O",
"+#-,6686665,=@O",
"o#=,6666674,=#o",
"+#=,6666776,=#+",
"o#=,6677776,=#o",
"+#=,6777776<=#+",
"o#=,6677664,=#o",
"+#=,6666664,=#+",
"o#=,4666664,=#o",
"+#=,4666664,=#+",
"o#=,6777774,=#o",
"+#=,6777776,=#+",
"o#=,6677776,=#o",
"+#=,6676776<=#+",
"o#=,6666664,=#o",
"+#=,6666664,=#+",
"o#=,6677664,=#o",
"+#=,6777664,=#+",
"o#=,6666666,=#+",
"+#=,4666666<=#o",
"o#=,6766666,=#o",
"+#=,6777664,=#+",
"o#=,6666666,=#o",
"+#=,6666666<=#+",
"o#=,6766664,=#+",
"+#=<6777664,=#o",
"o#=,6666676<=#o",
"+#=,6666776,=#+",
"o#=,6677666,=#o",
"+#=,6777664,=#+",
"o#=,6677664,=#+",
"+#=,6666666,=#o",
"o#=,4666776,=#o",
"+#=,4666776<=#+",
"o#=,6777664,=#o",
"+#=,6777664,=#+",
"o#=,6677664,=#+",
"+#=,6676666,=#o",
"o#=,6666776<=#o",
"+#=,6666776,=#+",
"o#=,6666666,=#o",
"+#=,6766664,=#+",
"o#=,6666666,=#+",
"+#=,4666666<=#o",
"o#=,6766666,=#o",
"+#=,6777664,=#+",
"o#=,6666666,=#o",
"+#=,6666666<=#+",
"o#=,6766666,=#+",
"+#=<6777664,=#o",
"o#=,6666674,=#o",
"+#=,6666776,=#+",
"o#=,6677776,=#o",
"+#=,6777776<=#+",
"o#=,6677664,=#o",
"+#=,6666664,=#+",
"o#=,4666664,=#o",
"+#=,4666664,=#+",
"o#=,6777774,=#o",
"+#=,6777776,=#+",
"o#=,6677776,=#o",
"+#=,6676776<=#+",
"o#=,6666664,=#o",
"+#=,6666664,=#+",
"o#=,6677664,=#o",
"+#=,6777664,=#+",
"o#=,6666666,=#+",
"+#=,4666666<=#o",
"o#=,6766666,=#o",
"+#=,6777664,=#+",
"o#=,6666666,=#o",
"+#=,6666666<=#+",
"o#=,6766664,=#+",
"+#=<6777664,=#o",
"o#=,6666676<=#o",
"+#=,6666776,=#+",
"o#=,6677666,=#o",
"+#=,6777664,=#+",
"o#=,6677664,=#+",
"+#=,6666666,=#o",
"o#=,4666776,=#o",
"+#=,4666776<=#+",
"o#=,6777664,=#o",
"+#=,6777664,=#+",
"o#=,6677664,=#+",
"+#=,6676666,=#o",
"o#=,6666776<=#o",
"+#=,6666776,=#+",
"o#=,6666666,=#o",
"+#=,6766664,=#+",
"o#=,6666666,=#+",
"+#=,4666666<=#o",
"o#=,6766666,=#o",
"+#=,6777664,=#+",
"o#=,6666666,=#o",
"+#=,6666666<=#+",
"o#=,6766666,=#+",
"+#=<6777664,=#o",
"o#=,6666674,=#o",
"+#=,6666776,=#+",
"o#=,6677776,=#o",
"+#=,6777776<=#+",
"o#=,6677664,=#o",
"+#=,6666664,=#+",
"o#=,4666664,=#o",
"+#=,4666664,=#+",
"o#=,6777774,=#o",
"+#=,6777776,=#+",
"o#=,6677776,=#o",
"+#=,6676776<=#+",
"o#=,6666664,=#o",
"+#=,6666664,=#+",
"o#=,6677664,=#o",
"+#=,6777664,=#+",
"o#=,6666666,=#+",
"+#=,4666666<=#o",
"o#=,6766666,=#o",
"+#=,6777664,=#+",
"o#=,6666666,=#o",
"+#=,6666666<=#+",
"o#=,6766664,=#+",
"+#=<6777664,=#o",
"o#=,6666676<=#o",
"+#=,6666776,=#+",
"o#=,6677666,=#o",
"+#=,6777664,=#+",
"o#=,6677664,=#+",
"+#=,6666666,=#o",
"o#=,4666776,=#o",
"+#=,4666776<=#+",
"o#=,6777664,=#o",
"+#=,6777664,=#+",
"o#=,6677664,=#+",
"+#=,6676666,=#o",
"o#=,6666776<=#o",
"+#=,6666776,=#+",
"o#=,6666666,=#o",
"+#=,6766664,=#+",
"o#=,6666666,=#+",
"+#=,4666666<=#o",
"o#=,6766666,=#o",
"+#=,6777664,=#+",
"o#=,6666666,=#o",
"+#=,6666666<=#+",
"o#=,6766666,=#+",
"+#=<6777664,=#o",
"o#=,6666674,=#o",
"+#=,6666776,=#+",
"o#=,6677776,=#o",
"+#=,6777776<=#+",
"o#=,6677664,=#o",
"+#=,6666664,=#+",
"o#=,4666664,=#o",
"+#=,4666664,=#+",
"o#=,6777774,=#o",
"+#=,6777776,=#+",
"o#=,6677776,=#o",
"+#=,6676776<=#+",
"o#=,6666664,=#o",
"+#=,6666664,=#+",
"o#=,6677664,=#o",
"+#=,6777664,=#+",
"o#=,6666666,=#+",
"+#=,4666666<=#o",
"o#=,6766666,=#o",
"+#=,6777664,=#+",
"o#=,6666666,=#o",
"+#=,6666666<=#+",
"o#=,6766664,=#+",
"+#=<6777664,=#o",
"o#=,6666676<=#o",
"+#=,6666776,=#+",
"o#=,6677666,=#o",
"+#=,6777664,=#+",
"o#=,6677664,=#+",
"+#=,6666666,=#o",
"o#=,4666776,=#o",
"+#=,4666776<=#+",
"o#=,6777664,=#o",
"+#=,6777664,=#+",
"o#=,6677664,=#+",
"+#=,6676666,=#o",
"o#=,6666776<=#o",
"+#=,6666776,=#+",
"o#=,6666666,=#o",
"+#=,6766664,=#+",
"o#=,6666666,=#+",
"+#=,4666666<=#o",
"o#=,6766666,=#o",
"+#=,6777664,=#+",
"o#=,6666666,=#o",
"+#=,6666666<=#+",
"o#=,6766666,=#+",
"+#=<6777664,=#o",
"o#=,6666674,=#o",
"+#=,6666776,=#+",
"o#=,6677776,=#o",
"+#=,6777776<=#+",
"o#=,6677664,=#o",
"+#=,6666664,=#+",
"o#=,4666664,=#o",
"+#=,4666664,=#+",
"o#=,6777774,=#o",
"+#=,6777776,=#+",
"o#=,6677776,=#o",
"+#=,6676776<=#+",
"o#=,6666664,=#o",
"+#=,6666664,=#+",
"o#=,6677664,=#o",
"+#=,6777664,=#+",
"o#=,6666666,=#+",
"+#=,4666666<=#o",
"o#=,6766666,=#o",
"+#=,6777664,=#+",
"o#=,6666666,=#o",
"+#=,6666666<=#+",
"o#=,6766664,=#+",
"+#=<6777664,=#o",
"o#=,6666676<=#o",
"+#=,6666776,=#+",
"o#=,6677666,=#o",
"+#=,6777664,=#+",
"o#=,6677664,=#+",
"+#=,6666666,=#o",
"o#=,4666776,=#o",
"+#=,4666776<=#+",
"o#=,6777664,=#o",
"+#=,6777664,=#+",
"o#=,6677664,=#+",
"+#=,6676666,=#o",
"o#=,6666776<=#o",
"+#=,6666776,=#+",
"o#=,6666666,=#o",
"+#=,6766664,=#+",
"o#=,6666666,=#+",
"+#=,4666666<=#o",
"o#=,6766666,=#o",
"+#=,6777664,=#+",
"o#=,6666666,=#o",
"+#=,6666666<=#+",
"o#=,6766666,=#+",
"+#=<6777664,=#o",
"o#=,6666674,=#o",
"+#=,6666776,=#+",
"o#=,6677776,=#o",
"+#=,6777776<=#+",
"o#=,6677664,=#o",
"+#=,6666664,=#+",
"o#=,4666664,=#o",
"+#=,4666664,=#+",
"o#=,6777774,=#o",
"+#=,6777776,=#+",
"o#=,6677776,=#o",
"+#=,6676776<=#+",
"o#=,6666664,=#o",
"+#=,6666664,=#+",
"o#=,6677664,=#o",
"+#=,6777664,=#+",
"o#=,6666666,=#+",
"+#=,4666666<=#o",
"o#=,6766666,=#o",
"+#=,6777664,=#+",
"o#=,6666666,=#o",
"+#=,6666666<=#+",
"o#=,6766664,=#+",
"+#=<6777664,=#o",
"o#=,6666676<=#o",
"+#=,6666776,=#+",
"o#=,6677666,=#o",
"+#=,6777664,=#+",
"o#=,6677664,=#+",
"+#=,6666666,=#o",
"o#=,4666776,=#o",
"+#=,4666776<=#+",
"+#=,6777666,=#+",
"o#=,6777664,=#o",
"+#=<6667666,=#o",
"XXo+#&&&&&##oXX",
".             .",
"               ",
"               ",
"               "
};
