/* XPM */
static char *_423da79170c4864c725405c502c0eadYh3fQnVllQ9YRZzW[] = {
/* columns rows colors chars-per-pixel */
"155 40 2 1 ",
"  c None",
". c black",
/* pixels */
"                                                                                                                                                           ",
"                                                                                                                                                           ",
"                                                                                                                                                           ",
"                                                                                                                                                           ",
"                                                                                                                                                           ",
"                                                                                                                                                           ",
"                                                                                                                                                           ",
"                                                                                                                                                           ",
"                                                                                                                                                           ",
"                                                                                                                                                           ",
"                                                                                                                                                           ",
"                                                                                                                                                           ",
"                                                                                                                                                           ",
"        ..       ..       ..                      ........                                                                                                 ",
"        ...      ..       ..                      .........                                                                                                ",
"        ....     ..       ..                      ..     ...                                                                                               ",
"        ....     ..       .. ...                  ..      ...       .. ..       .....        .. ...          ....           .....       ..    ..           ",
"        .. ..    ..       .......                 ..       ..       .....      .......       .......        ......         .......      ..    ..           ",
"        ..  ..   ..       ...  ...                ..       ..       ...       ..    ..       ...  ...      ...  ..        ..    ..      ..    ..           ",
"        ..  ...  ..       ..    ..                ..       ..       ..            ....       ..    ..      ..    ..           ....      ..    ..           ",
"        ..   ..  ..       ..    ..                ..       ..       ..         .......       ..    ..      ........        .......      ..    ..           ",
"        ..    .. ..       ..    ..                ..       ..       ..        ....  ..       ..    ..      ........       ....  ..      ..    ..           ",
"        ..     ....       ..    ..                ..      ...       ..        ..    ..       ..    ..      ..             ..    ..      ..    ..           ",
"        ..     ....       ...  ...                ..     ...        ..        ..   ...       ...  ...      ...   ..       ..   ...      ..   ...           ",
"        ..      ...       .......    ..           .........         ..        ........       .......        ......        ........      ........           ",
"        ..       ..       .. ...     ..           ........          ..         .... ..       .. ...          ....          .... ..       .... ..           ",
"                                                                                             ..                                                            ",
"                                                                                             ..                                                            ",
"                                                                                             ..                                                            ",
"                                                                                             ..                                                            ",
"                                                                                                                                                           ",
"                                                                                                                                                           ",
"                                                                                                                                                           ",
"                                                                                                                                                           ",
"                                                                                                                                                           ",
"                                                                                                                                                           ",
"                                                                                                                                                           ",
"                                                                                                                                                           ",
"                                                                                                                                                           ",
"                                                                                                                                                           "
};
