/* XPM */
static char *_6726_7fbdaaa5a23f160730d449b12794710d28307cf491becaca3ea4057b2012e95b[] = {
/* columns rows colors chars-per-pixel */
"297 15 2 1 ",
"  c black",
". c None",
/* pixels */
"         ....................... .................................................................................... ...........................................................................................  .....................................................................  ...............",
"         ......................  ...................................................................................  ...........................................................................................  .....................................................................  ...............",
"  .............................  ...................................................................................  ...........................................................................................  .....................................................................  ...............",
"  ..............  .    .......     .....  .  ........   .........       ................  ...  ........    ........     ......  .  ........   .................  .    ..........    .........  .   ..   ........  .......  .   .........     ..........   .........  ....  .........   .  .........    ..",
"  ..............        ......     .....     .......     ........       ................  ...  .......      .......     ......     .......     ................        ........      ........            .......  .......       .......       ........     ........  ....  ........       ........      .",
"         .......   ...  .......  .......   ........  ...  ...........  .................  ...  ......   ..   .......  ........   ........  ...  ...............   ...  .......   ..   .......   ..   ..  .......  .......   ..   ......  ...  .......  ...  .......  ....  .......   ..   .......   ..   ",
"         .......  ....  .......  .......  .........       ..........   ..................  .  .......  ....  .......  ........  .........       ...............  ....  .......  ....  .......  ...  ...  .......  .......  ....  ......    ..........       .......  ....  .......  ....  .......  ....  ",
"  ..............  ....  .......  .......  .........       .........   ...................  .  .......  ....  .......  ........  .........       ...............  ....  .......  ....  .......  ...  ...  .......  .......  ....  .......     ........       .......  ....  .......  ....  .......  ....  ",
"  ..............  ....  .......  .......  .........  .............   ....................  .  .......  ....  .......  ........  .........  ....................  ....  .......  ....  .......  ...  ...  .......  .......  ....  .........    .......  ............  ....  .......  ....  .......  ....  ",
"  ..............  ....  .......  .......  .........   ..  ........  ......................   ........   ..   .......  ........  .........   ..  ...............  ....  .......   ..   .......  ...  ...  ......  ........   ..   ......  ...  .......   ..  .......  ...   .......   ..   .......   ..   ",
"         .......  ....  .......    .....  ..........     ........       ..................   .........      ........    ......  ..........     ................  ....  ........      ........  ...  ...  ......  ........       .......       ........     ........        ........       ........      .",
"         .......  ....  ........   .....  ...........   .........       ..................   ..........    ..........   ......  ...........   .................  ....  .........    .........  ...  ...  ......  ........  .   .........     ..........   ..........    .  .........   .  .........    ..",
".........................................................................................................................................................................................................................  ..............................................................................",
".........................................................................................................................................................................................................................  ..............................................................................",
".........................................................................................................................................................................................................................  .............................................................................."
};
