/* XPM */
static char *_feeec64e3c2488cd8324b2df6c6da2aHVOMCLF0SybHx2IL[] = {
/* columns rows colors chars-per-pixel */
"155 40 2 1 ",
"  c None",
". c black",
/* pixels */
"                                                                                                                                                           ",
"                                                                                                                                                           ",
"                                                                                                                                                           ",
"                                                                                                                                                           ",
"                                                                                                                                                           ",
"                                                                                                                                                           ",
"                                                                                                                                                           ",
"                                                                                                                                                           ",
"                                                                                                                                                           ",
"                                                                                                                                                           ",
"                                                                                                                                                           ",
"                                                                                                                                                           ",
"                                                                                                                                                           ",
"                                       ..........       ..........      ...       ...       ........           .....                                       ",
"                                       ..........       ..........      ....     ....       .........        ........                                      ",
"                                           ..           ..              ....     ....       ..     ...      ...    ...                                     ",
"                                           ..           ..              ....     ....       ..      ..      ..      ..                                     ",
"                                           ..           ..              .. ..   .. ..       ..      ..      ..                                             ",
"                                           ..           .........       .. ..   .. ..       ..     ...       ....                                          ",
"                                           ..           .........       .. ..   .. ..       .........         ......                                       ",
"                                           ..           ..              ..  .   .  ..       ........             ....                                      ",
"                                           ..           ..              ..  .. ..  ..       ..                      ..                                     ",
"                                           ..           ..              ..  .. ..  ..       ..              ..      ..                                     ",
"                                           ..           ..              ..  .. ..  ..       ..              ...    ...                                     ",
"                                           ..           ..........      ..   ...   ..       ..               ........                                      ",
"                                           ..           ..........      ..   ...   ..       ..                ......                                       ",
"                                                                                                                                                           ",
"                                                                                                                                                           ",
"                                                                                                                                                           ",
"                                                                                                                                                           ",
"                                                                                                                                                           ",
"                                                                                                                                                           ",
"                                                                                                                                                           ",
"                                                                                                                                                           ",
"                                                                                                                                                           ",
"                                                                                                                                                           ",
"                                                                                                                                                           ",
"                                                                                                                                                           ",
"                                                                                                                                                           ",
"                                                                                                                                                           "
};
